<svg xmlns="http://www.w3.org/2000/svg" width="16.447" height="14.951" viewBox="0 0 16.447 14.951">
  <path id="Icon_material-thumb-up" data-name="Icon material-thumb-up" d="M17.947,16.451h-2.99V7.48h2.99ZM1.5,8.228A1.5,1.5,0,0,1,3,6.733H7.713L7,3.317,6.98,3.077a1.125,1.125,0,0,1,.329-.792L8.1,1.5l4.919,4.926a1.462,1.462,0,0,1,.441,1.054v7.476a1.5,1.5,0,0,1-1.5,1.5H5.238a1.485,1.485,0,0,1-1.376-.912L1.6,10.269a1.477,1.477,0,0,1-.1-.546V8.3l.007-.007Z" transform="translate(-1.5 -1.5)" fill="#5e8bdf"/>
</svg>
